<svg width="49" height="19" viewBox="0 0 49 19" fill="none" xmlns="http://www.w3.org/2000/svg">
<rect width="49" height="19" rx="4" fill="#4EC53B" fill-opacity="0.4"/>
<path d="M13.0701 12.07C12.6874 12.07 12.3211 12.0163 11.9711 11.909C11.6211 11.797 11.3434 11.6547 11.1381 11.482L11.4531 10.775C11.6491 10.929 11.8917 11.0573 12.1811 11.16C12.4704 11.2627 12.7667 11.314 13.0701 11.314C13.3267 11.314 13.5344 11.286 13.6931 11.23C13.8517 11.174 13.9684 11.0993 14.0431 11.006C14.1177 10.908 14.1551 10.7983 14.1551 10.677C14.1551 10.5277 14.1014 10.4087 13.9941 10.32C13.8867 10.2267 13.7467 10.1543 13.5741 10.103C13.4061 10.047 13.2171 9.99567 13.0071 9.949C12.8017 9.90233 12.5941 9.84867 12.3841 9.788C12.1787 9.72267 11.9897 9.641 11.8171 9.543C11.6491 9.44033 11.5114 9.305 11.4041 9.137C11.2967 8.969 11.2431 8.75433 11.2431 8.493C11.2431 8.227 11.3131 7.98433 11.4531 7.765C11.5977 7.541 11.8147 7.36367 12.1041 7.233C12.3981 7.09767 12.7691 7.03 13.2171 7.03C13.5111 7.03 13.8027 7.06733 14.0921 7.142C14.3814 7.21667 14.6334 7.324 14.8481 7.464L14.5611 8.171C14.3417 8.04033 14.1154 7.94467 13.8821 7.884C13.6487 7.81867 13.4247 7.786 13.2101 7.786C12.9581 7.786 12.7527 7.81633 12.5941 7.877C12.4401 7.93767 12.3257 8.017 12.2511 8.115C12.1811 8.213 12.1461 8.325 12.1461 8.451C12.1461 8.60033 12.1974 8.72167 12.3001 8.815C12.4074 8.90367 12.5451 8.97367 12.7131 9.025C12.8857 9.07633 13.0771 9.12767 13.2871 9.179C13.4971 9.22567 13.7047 9.27933 13.9101 9.34C14.1201 9.40067 14.3091 9.48 14.4771 9.578C14.6497 9.676 14.7874 9.809 14.8901 9.977C14.9974 10.145 15.0511 10.3573 15.0511 10.614C15.0511 10.8753 14.9787 11.118 14.8341 11.342C14.6941 11.5613 14.4771 11.7387 14.1831 11.874C13.8891 12.0047 13.5181 12.07 13.0701 12.07ZM16.7934 9.137H19.2294V9.886H16.7934V9.137ZM16.8634 11.237H19.6284V12H15.9534V7.1H19.5304V7.863H16.8634V11.237ZM20.6429 12V7.1H21.5529V11.23H24.1149V12H20.6429ZM25.6733 9.137H28.1093V9.886H25.6733V9.137ZM25.7433 11.237H28.5083V12H24.8333V7.1H28.4103V7.863H25.7433V11.237ZM31.7907 12.07C31.4174 12.07 31.0697 12.0093 30.7477 11.888C30.4304 11.762 30.1527 11.587 29.9147 11.363C29.6814 11.1343 29.4994 10.866 29.3687 10.558C29.2381 10.25 29.1727 9.914 29.1727 9.55C29.1727 9.186 29.2381 8.85 29.3687 8.542C29.4994 8.234 29.6837 7.968 29.9217 7.744C30.1597 7.51533 30.4374 7.34033 30.7547 7.219C31.0721 7.093 31.4197 7.03 31.7977 7.03C32.1991 7.03 32.5654 7.1 32.8967 7.24C33.2281 7.37533 33.5081 7.57833 33.7367 7.849L33.1487 8.402C32.9714 8.21067 32.7731 8.06833 32.5537 7.975C32.3344 7.877 32.0964 7.828 31.8397 7.828C31.5831 7.828 31.3474 7.87 31.1327 7.954C30.9227 8.038 30.7384 8.157 30.5797 8.311C30.4257 8.465 30.3044 8.647 30.2157 8.857C30.1317 9.067 30.0897 9.298 30.0897 9.55C30.0897 9.802 30.1317 10.033 30.2157 10.243C30.3044 10.453 30.4257 10.635 30.5797 10.789C30.7384 10.943 30.9227 11.062 31.1327 11.146C31.3474 11.23 31.5831 11.272 31.8397 11.272C32.0964 11.272 32.3344 11.2253 32.5537 11.132C32.7731 11.034 32.9714 10.887 33.1487 10.691L33.7367 11.251C33.5081 11.517 33.2281 11.72 32.8967 11.86C32.5654 12 32.1967 12.07 31.7907 12.07ZM35.548 12V7.87H33.924V7.1H38.082V7.87H36.458V12H35.548Z" fill="white"/>
</svg>
