<svg width="74" height="23" viewBox="0 0 74 23" fill="none" xmlns="http://www.w3.org/2000/svg">
<path d="M16.6652 7.10939V22.5694H12.0197V21.1159C10.998 22.2907 9.48124 23.0001 7.40286 23.0001C3.34445 23.0001 0 19.447 0 14.8394C0 10.2318 3.34445 6.67871 7.40286 6.67871C9.47807 6.67871 10.998 7.38806 12.0197 8.56292V7.10939H16.6652ZM12.0197 14.8394C12.0197 12.5213 10.4712 11.0836 8.33258 11.0836C6.1939 11.0836 4.64543 12.5213 4.64543 14.8394C4.64543 17.1574 6.19708 18.611 8.33258 18.611C10.4681 18.611 12.0197 17.1574 12.0197 14.8394Z" fill="white"/>
<path d="M25.9561 11.5616V17.0338C25.9561 18.3638 27.1048 18.4873 29.1483 18.3638V22.5692C23.0781 23.2026 21.3107 21.3627 21.3107 17.0338V11.5616H18.8325V7.10921H21.3107V4.17364L25.9561 2.78345V7.10921H29.1483V11.5616H25.9561Z" fill="white"/>
<path d="M31.7788 0H36.4274V22.5693H31.7788V0Z" fill="white"/>
<path d="M55.7262 7.10939V22.5694H51.0871V21.1159C50.0654 22.2907 48.5486 23.0001 46.4734 23.0001C42.415 23.0001 39.0674 19.447 39.0674 14.8394C39.0674 10.2318 42.415 6.67871 46.4734 6.67871C48.5486 6.67871 50.0654 7.38806 51.0871 8.56292V7.10939H55.7262ZM51.0871 14.8394C51.0871 12.5213 49.5291 11.0836 47.3936 11.0836C45.2581 11.0836 43.7065 12.5372 43.7065 14.8552C43.7065 17.1733 45.2549 18.6268 47.3936 18.6268C49.5323 18.6268 51.0871 17.1574 51.0871 14.8394V14.8394Z" fill="white"/>
<path d="M74 13.0787V22.5789H69.3546V13.7563C69.3546 11.8563 68.1457 10.9443 66.6575 10.9443C64.9535 10.9443 63.7763 11.9323 63.7763 14.13V22.5694H59.1309V7.10936H63.7795V8.55022C64.6172 7.40703 66.1656 6.66602 68.2218 6.66602C71.3346 6.67868 74 8.9049 74 13.0787V13.0787Z" fill="white"/>
</svg>
